# xmcd
#
# Track frame offsets:
#	150
#	11080
#	20480
#	31417
#	40774
#	51446
#	62997
#	75234
#	86194
#	97844
#	109818
#	120579
#	132448
#	142271
#	152841
#	163098
#	173470
#	182027
#	193833
#	206950
#	219260
#	229284
#	239163
#	249290
#	259359
#	270989
#	279960
#	291349
#	301429
#	312674
#	324894
#	337503
#	347954
#
# Disc length: 4777 seconds
#
# Revision: 0
# Processed by: cddbd v1.5.2PL0 Copyright (c) Steve Scherf et al.
# Submitted via: audiograbber 1.83.01
#
DISCID=e912a721
DTITLE=George Jones - Birth Of A Legend CD5
DYEAR=2016
DGENRE=Country
TTITLE0=Your Old Standby
TTITLE1=Watcha Gonna Do
TTITLE2=Accidentally On Purpose
TTITLE3=Vitamins L-O-V-E
TTITLE4=The Last Town I Painted
TTITLE5=Revenooer Man
TTITLE6=Sparkling Brown Eyes
TTITLE7=The First One
TTITLE8=You Better Treat Your Man Right
TTITLE9=Out Of Control
TTITLE10=Glad To Let Her Go
TTITLE11=You're Still On My Mind
TTITLE12=Just Little Boy Blue
TTITLE13=Tarnished Angel
TTITLE14=Slave Lover
TTITLE15=Why Baby Why
TTITLE16=Poor Man's Riches
TTITLE17=Heartaches By The Number
TTITLE18=I Love You Because
TTITLE19=Oh Lonesome Me
TTITLE20=(I'll Be There) If You Ever Want Me
TTITLE21=If You've Got The Money (I've Got The Time)
TTITLE22=I Walk The Line
TTITLE23=It's Been So Long
TTITLE24=Just One More
TTITLE25=You Gotta Be My Baby
TTITLE26=Life To Go
TTITLE27=Settin' The Woods On Fire
TTITLE28=Window Shopping
TTITLE29=Howlin' At The Moon
TTITLE30=There'll Be No Teardrops Tonight
TTITLE31=Hey Good Lookin'
TTITLE32=Half As Much
EXTD=
EXTT0=
EXTT1=
EXTT2=
EXTT3=
EXTT4=
EXTT5=
EXTT6=
EXTT7=
EXTT8=
EXTT9=
EXTT10=
EXTT11=
EXTT12=
EXTT13=
EXTT14=
EXTT15=
EXTT16=
EXTT17=
EXTT18=
EXTT19=
EXTT20=
EXTT21=
EXTT22=
EXTT23=
EXTT24=
EXTT25=
EXTT26=
EXTT27=
EXTT28=
EXTT29=
EXTT30=
EXTT31=
EXTT32=
PLAYORDER=
